<?xml version="1.0" standalone="no"?>
<!DOCTYPE svg PUBLIC "-//W3C//DTD SVG 20010904//EN"
 "http://www.w3.org/TR/2001/REC-SVG-20010904/DTD/svg10.dtd">
<svg version="1.0" xmlns="http://www.w3.org/2000/svg"
 width="512.000000pt" height="512.000000pt" viewBox="0 0 512.000000 512.000000"
 preserveAspectRatio="xMidYMid meet">
<metadata>
Created by potrace 1.11, written by Peter Selinger 2001-2013
</metadata>
<g transform="translate(0.000000,512.000000) scale(0.100000,-0.100000)"
fill="#000000" stroke="none">
<path d="M2378 5116 c-1 -2 -39 -6 -82 -10 -44 -4 -82 -8 -85 -10 -3 -2 -31
-7 -61 -11 -107 -12 -318 -67 -465 -121 -104 -38 -99 -36 -257 -114 -252 -123
-465 -277 -668 -480 -203 -203 -344 -398 -480 -663 -44 -86 -78 -157 -76 -157
3 0 -6 -24 -18 -53 -66 -147 -140 -444 -161 -637 -3 -30 -8 -71 -10 -90 -5
-41 -6 -373 -1 -410 2 -14 7 -55 10 -92 8 -72 11 -95 26 -173 5 -27 12 -63 15
-80 15 -91 104 -368 155 -481 102 -225 237 -444 383 -619 75 -90 261 -272 357
-349 226 -182 504 -335 785 -433 82 -28 272 -79 330 -87 22 -4 47 -9 55 -11
113 -35 629 -41 815 -10 39 6 93 16 125 21 118 21 322 83 463 140 427 174 801
461 1078 829 252 333 413 708 486 1125 27 156 26 751 -2 850 -2 8 -7 31 -10
50 -33 199 -119 451 -231 674 -337 674 -969 1170 -1709 1341 -118 27 -187 38
-335 54 -71 8 -424 13 -432 7z"/>
</g>
</svg>
